<svg width="20" height="20" viewBox="0 0 20 20" fill="none" xmlns="http://www.w3.org/2000/svg">
<g clip-path="url(#clip0_1503_113)">
<path d="M18.4632 19.9212C19.0503 19.9212 19.5263 19.4452 19.5263 18.858V1.72112C19.5263 1.13389 19.0503 0.657959 18.4632 0.657959H1.32634C0.739044 0.657959 0.263184 1.13389 0.263184 1.72112V18.858C0.263184 19.4452 0.739044 19.9212 1.32634 19.9212H18.4632Z" fill="#395185"/>
<path d="M13.5545 19.921V12.4612H16.0585L16.4334 9.55407H13.5545V7.69788C13.5545 6.85617 13.7883 6.28257 14.9953 6.28257L16.5348 6.28189V3.68174C16.2684 3.6463 15.3546 3.56714 14.2915 3.56714C12.0719 3.56714 10.5524 4.92196 10.5524 7.41006V9.55407H8.04199V12.4612H10.5524V19.921H13.5545Z" fill="white"/>
</g>
<defs>
<clipPath id="clip0_1503_113">
<rect width="19.2632" height="19.2632" fill="white" transform="translate(0.263184 0.657959)"/>
</clipPath>
</defs>
</svg>
